HIERARCHY
ROOT Hips
{
	OFFSET -0.001795 -0.223333 0.028219
	CHANNELS 6 Xposition Yposition Zposition Zrotation Yrotation Xrotation 
	JOINT LeftUpLeg
	{
		OFFSET 0.069520 -0.091406 -0.006815
		CHANNELS 3 Zrotation Yrotation Xrotation
		JOINT LeftLeg
		{
			OFFSET 0.034277 -0.375199 -0.004496
			CHANNELS 3 Zrotation Yrotation Xrotation
			JOINT LeftFoot
			{
				OFFSET -0.013596 -0.397961 -0.043693
				CHANNELS 3 Zrotation Yrotation Xrotation
				JOINT LeftToe
				{
					OFFSET 0.026358 -0.055791 0.119288
					CHANNELS 3 Zrotation Yrotation Xrotation
					End Site
					{
						OFFSET 0.000000 0.000000 0.000000
					}
				}
			}
		}
	}
	JOINT RightUpLeg
	{
		OFFSET -0.067670 -0.090522 -0.004320
		CHANNELS 3 Zrotation Yrotation Xrotation
		JOINT RightLeg
		{
			OFFSET -0.038290 -0.382569 -0.008850
			CHANNELS 3 Zrotation Yrotation Xrotation
			JOINT RightFoot
			{
				OFFSET 0.015774 -0.398415 -0.042312
				CHANNELS 3 Zrotation Yrotation Xrotation
				JOINT RightToe
				{
					OFFSET -0.025372 -0.048144 0.123348
					CHANNELS 3 Zrotation Yrotation Xrotation
					End Site
					{
						OFFSET 0.000000 0.000000 0.000000
					}
				}
			}
		}
	}
	JOINT Spine
	{
		OFFSET -0.002533 0.108963 -0.026696
		CHANNELS 3 Zrotation Yrotation Xrotation
		JOINT Spine1
		{
			OFFSET 0.005487 0.135180 0.001092
			CHANNELS 3 Zrotation Yrotation Xrotation
			JOINT Spine2
			{
				OFFSET 0.001457 0.052922 0.025425
				CHANNELS 3 Zrotation Yrotation Xrotation
				JOINT Neck
				{
					OFFSET -0.002778 0.213870 -0.042857
					CHANNELS 3 Zrotation Yrotation Xrotation
					JOINT Head
					{
						OFFSET 0.005152 0.064970 0.051349
						CHANNELS 3 Zrotation Yrotation Xrotation
						End Site
						{
							OFFSET 0.000000 0.000000 0.000000
						}
					}
				}
				JOINT LeftShoulder
				{
					OFFSET 0.078845 0.121749 -0.034090
					CHANNELS 3 Zrotation Yrotation Xrotation
					JOINT LeftArm
					{
						OFFSET 0.090977 0.030469 -0.008868
						CHANNELS 3 Zrotation Yrotation Xrotation
						JOINT LeftForeArm
						{
							OFFSET 0.259612 -0.012772 -0.027456
							CHANNELS 3 Zrotation Yrotation Xrotation
							JOINT LeftHand
							{
								OFFSET 0.249234 0.008986 -0.001171
								CHANNELS 3 Zrotation Yrotation Xrotation
								End Site
								{
									OFFSET 0.000000 0.000000 0.000000
								}
							}
						}
					}
				}
				JOINT RightShoulder
				{
					OFFSET -0.081759 0.118833 -0.038615
					CHANNELS 3 Zrotation Yrotation Xrotation
					JOINT RightArm
					{
						OFFSET -0.096012 0.032551 -0.009143
						CHANNELS 3 Zrotation Yrotation Xrotation
						JOINT RightForeArm
						{
							OFFSET -0.253742 -0.013329 -0.021401
							CHANNELS 3 Zrotation Yrotation Xrotation
							JOINT RightHand
							{
								OFFSET -0.255298 0.007772 -0.005559
								CHANNELS 3 Zrotation Yrotation Xrotation
								End Site
								{
									OFFSET 0.000000 0.000000 0.000000
								}
							}
						}
					}
				}
			}
		}
	}
}
MOTION
Frames: 10
Frame Time: 0.050000
-0.004224 0.936141 -0.051768 2.137315 -0.985735 -8.602814 3.921157 0.760934 12.045609 -8.353048 0.752879 -5.467268 8.560203 18.330086 14.278352 0.000000 0.000000 0.000000 -10.500657 0.041975 7.873227 5.483550 -0.590700 1.464543 -3.666295 -11.392652 8.459839 0.000000 0.000000 0.000000 7.487200 0.563193 -3.947010 -6.412408 2.627587 -12.508928 -5.724761 10.022299 29.312122 8.202491 -1.264874 -28.377626 0.000000 0.000000 0.000000 -11.760454 -35.254683 13.722928 -36.948309 -41.239371 6.056402 -132.971566 -53.821639 102.172798 0.000000 0.000000 0.000000 18.376312 17.097646 10.578061 68.894345 42.677394 19.110437 110.133112 50.530009 81.810766 0.000000 0.000000 0.000000 
-0.003907 0.935588 -0.052083 2.021018 -1.248004 -8.840206 3.993311 0.780533 12.316320 -8.320496 0.757717 -5.441403 8.734265 18.579713 14.370834 0.000000 0.000000 0.000000 -10.462426 0.045320 7.693263 5.561068 -0.602970 2.275113 -3.554597 -11.121750 8.167084 0.000000 0.000000 0.000000 7.467920 0.550268 -3.766606 -6.570684 2.683867 -12.446165 -5.556847 10.079351 29.350281 8.523460 -1.505331 -28.122556 0.000000 0.000000 0.000000 -12.264374 -35.190037 13.821071 -36.856278 -40.161961 5.728082 -132.988974 -53.253616 101.526205 0.000000 0.000000 0.000000 18.389895 17.494481 10.759087 69.081488 42.878898 19.345164 110.056864 50.817664 81.984378 0.000000 0.000000 0.000000 
-0.003636 0.935260 -0.052409 1.912426 -1.073696 -8.907472 4.085783 0.759922 12.224422 -8.311440 0.765445 -5.119545 8.912927 18.848752 14.272215 0.000000 0.000000 0.000000 -10.410544 0.032125 7.415102 5.593196 -0.614233 2.808454 -3.631402 -11.241697 8.069743 0.000000 0.000000 0.000000 7.280380 0.527337 -3.639949 -6.504309 2.667746 -12.362614 -5.457621 10.085026 29.378938 8.612086 -1.536880 -28.128667 0.000000 0.000000 0.000000 -12.395642 -34.624881 13.561130 -37.346110 -39.457251 5.623246 -133.352990 -51.934689 100.308145 0.000000 0.000000 0.000000 18.330233 17.630772 10.845825 69.170401 43.079702 19.555658 110.405818 50.940714 82.586244 0.000000 0.000000 0.000000 
-0.003320 0.934917 -0.052670 1.714259 -0.778241 -8.988491 4.366219 0.714689 12.113406 -8.462813 0.776603 -4.906057 9.192249 19.269471 14.339060 0.000000 0.000000 0.000000 -10.271889 0.005925 7.352934 5.783523 -0.647814 3.175736 -3.853961 -11.630797 7.892868 0.000000 0.000000 0.000000 7.188379 0.519454 -3.611822 -6.406666 2.641107 -12.352708 -5.320303 10.085256 29.581874 9.142683 -1.833468 -28.040919 0.000000 0.000000 0.000000 -12.810981 -34.384663 13.493317 -37.789536 -38.887544 5.550512 -133.528212 -50.670453 98.865686 0.000000 0.000000 0.000000 18.349322 17.477741 10.824263 68.812132 43.068598 19.371542 111.297710 50.391539 83.079368 0.000000 0.000000 0.000000 
-0.002978 0.934871 -0.052798 1.553239 -0.124793 -9.045829 4.691357 0.658134 12.100905 -8.725930 0.781496 -4.839516 9.180742 19.279701 14.314812 0.000000 0.000000 0.000000 -10.258949 -0.028217 7.598326 6.023762 -0.690472 3.089318 -4.041789 -12.007006 8.073424 0.000000 0.000000 0.000000 7.112782 0.519251 -3.671713 -6.366690 2.642441 -12.336988 -5.235533 9.930550 29.767396 9.584165 -2.044692 -28.096830 0.000000 0.000000 0.000000 -13.124093 -34.143048 13.379011 -38.181626 -38.326143 5.464998 -133.620546 -49.619883 97.469644 0.000000 0.000000 0.000000 18.373739 17.181603 10.750080 68.177414 43.030320 19.040642 112.115409 50.257196 84.029247 0.000000 0.000000 0.000000 
-0.002564 0.934604 -0.052829 1.384061 0.553217 -9.047031 5.000357 0.594443 11.955227 -8.970627 0.789016 -4.654530 9.402065 19.628995 14.446937 0.000000 0.000000 0.000000 -10.085876 -0.074118 7.853050 6.143245 -0.717647 2.990491 -4.320866 -12.566742 8.290052 0.000000 0.000000 0.000000 6.866681 0.519757 -3.844461 -6.151107 2.577694 -12.416237 -5.141613 9.820696 30.084401 10.031748 -2.240725 -28.233531 0.000000 0.000000 0.000000 -13.422208 -33.830095 13.219664 -38.656827 -37.905294 5.423902 -133.394148 -48.460456 95.437027 0.000000 0.000000 0.000000 18.893243 16.764536 10.761090 67.099647 42.951346 18.402678 112.491707 50.369662 84.842129 0.000000 0.000000 0.000000 
-0.002107 0.934575 -0.052968 1.256866 1.150462 -9.126249 5.238813 0.543843 11.857481 -8.987465 0.783191 -4.452154 9.468398 19.750195 14.676163 0.000000 0.000000 0.000000 -9.883263 -0.121816 8.154332 6.065873 -0.713764 2.672701 -4.588312 -13.145199 8.769039 0.000000 0.000000 0.000000 6.836378 0.530613 -3.990099 -6.136337 2.591943 -12.272126 -5.018029 9.623721 30.319325 10.243309 -2.309746 -28.436207 0.000000 0.000000 0.000000 -13.500181 -33.678323 13.116858 -38.927176 -37.690865 5.399021 -133.093391 -47.892084 94.139138 0.000000 0.000000 0.000000 18.908550 16.352495 10.600350 66.252304 42.593629 17.735771 112.944228 50.654507 85.849166 0.000000 0.000000 0.000000 
-0.001669 0.934562 -0.053329 1.206347 1.621396 -9.227295 5.255123 0.523168 11.796277 -8.906446 0.768831 -4.392069 9.435200 19.718975 14.554317 0.000000 0.000000 0.000000 -9.837817 -0.154581 8.527185 5.996327 -0.708010 2.337008 -4.635489 -13.242425 8.958853 0.000000 0.000000 0.000000 6.611271 0.522593 -4.037328 -5.880680 2.514264 -12.133537 -4.987854 9.290217 30.385660 10.154566 -2.213417 -28.745259 0.000000 0.000000 0.000000 -13.545113 -33.510104 13.045524 -39.229764 -37.533353 5.418514 -132.800565 -47.863854 93.696555 0.000000 0.000000 0.000000 18.795479 16.045543 10.407481 65.727966 41.893133 17.001913 113.499969 50.636183 86.516400 0.000000 0.000000 0.000000 
-0.001326 0.934809 -0.053989 1.106773 1.862897 -9.182187 5.330160 0.502678 11.743470 -8.817446 0.755373 -4.400464 9.297548 19.530007 14.540590 0.000000 0.000000 0.000000 -9.725194 -0.172816 8.514494 5.817625 -0.686389 2.192433 -4.594786 -13.178206 9.184368 0.000000 0.000000 0.000000 6.561048 0.522896 -4.094942 -5.731451 2.468917 -12.062961 -4.970798 8.921174 30.341895 10.083776 -2.222857 -28.680347 0.000000 0.000000 0.000000 -13.545320 -33.231158 12.958963 -39.447113 -37.660547 5.502636 -132.665022 -48.041937 93.914411 0.000000 0.000000 0.000000 18.895423 15.473495 10.077074 65.208043 40.942606 16.080003 113.706566 49.893817 85.768530 0.000000 0.000000 0.000000 
-0.001141 0.935087 -0.054927 1.045162 1.994185 -9.059665 5.208206 0.501019 11.554667 -8.552585 0.735488 -4.368122 9.325267 19.562764 14.274612 0.000000 0.000000 0.000000 -9.677035 -0.177905 8.396815 5.738916 -0.674536 1.919255 -4.496749 -12.991579 9.312020 0.000000 0.000000 0.000000 6.473488 0.495487 -3.884480 -5.523563 2.390104 -12.262916 -5.021450 8.496032 30.269814 9.886050 -2.142828 -28.810791 0.000000 0.000000 0.000000 -13.691696 -33.118677 13.002698 -39.687375 -37.954464 5.671256 -131.923577 -48.597961 93.859287 0.000000 0.000000 0.000000 18.948233 15.204200 9.860019 64.878648 40.031841 15.296243 113.896068 49.553685 85.393033 0.000000 0.000000 0.000000 
